<?xml version="1.0" encoding="utf-8"?>
<!-- Generator: Adobe Illustrator 16.0.0, SVG Export Plug-In . SVG Version: 6.00 Build 0)  -->
<!DOCTYPE svg PUBLIC "-//W3C//DTD SVG 1.1//EN" "http://www.w3.org/Graphics/SVG/1.1/DTD/svg11.dtd">
<svg version="1.1" id="Layer_0_xA0_Image_1_" xmlns="http://www.w3.org/2000/svg" xmlns:xlink="http://www.w3.org/1999/xlink"
	 x="0px" y="0px" width="926px" height="661px" viewBox="0 0 926 661" enable-background="new 0 0 926 661" xml:space="preserve">
<image overflow="visible" enable-background="new    " width="926" height="661" id="Layer_0_xA0_Image" xlink:href="map.png"  transform="matrix(1.0002 0 0 1.0002 -8349.1055 -8126.5742)">
</image>
<path fill="#7B64AC" d="M422.799,245.748L422.799,245.748c-4.56-3.564-11.942-3.564-16.503,0l0,0
	c-4.11,3.212-4.56,9.235-1.092,12.899l9.311,10.54l9.312-10.54C427.357,254.983,426.907,248.96,422.799,245.748z"/>
<path fill="#7B64AC" d="M260.799,209.748L260.799,209.748c-4.56-3.564-11.944-3.564-16.503,0l0,0
	c-4.11,3.212-4.56,9.235-1.092,12.899l9.311,10.541l9.311-10.541C265.357,218.983,264.907,212.96,260.799,209.748z"/>
<path fill="#7B64AC" d="M470.799,176.748L470.799,176.748c-4.56-3.564-11.942-3.564-16.503,0l0,0
	c-4.11,3.212-4.56,9.235-1.092,12.899l9.311,10.541l9.312-10.541C475.357,185.983,474.907,179.96,470.799,176.748z"/>
<path fill="#7B64AC" d="M609.799,418.748L609.799,418.748c-4.56-3.564-11.942-3.564-16.503,0l0,0
	c-4.11,3.212-4.56,9.234-1.092,12.898l9.311,10.541l9.312-10.541C614.357,427.982,613.907,421.96,609.799,418.748z"/>
<path fill="#7B64AC" d="M382.812,449.805L382.812,449.805c-4.561-3.563-11.943-3.563-16.504,0l0,0
	c-4.108,3.212-4.56,9.234-1.092,12.898l9.312,10.541l9.311-10.541C387.37,459.039,386.92,453.017,382.812,449.805z"/>
<path fill="#7B64AC" d="M522.799,307.062L522.799,307.062c-4.56-3.564-11.942-3.564-16.503,0l0,0
	c-4.11,3.212-4.56,9.233-1.092,12.897l9.311,10.541l9.312-10.541C527.357,316.296,526.907,310.273,522.799,307.062z"/>
<path fill="#7B64AC" d="M204.124,333.174L204.124,333.174c-4.56-3.564-11.944-3.564-16.503,0l0,0
	c-4.11,3.213-4.561,9.234-1.092,12.898l9.311,10.541l9.312-10.541C208.683,342.408,208.232,336.386,204.124,333.174z"/>
<path fill="#7B64AC" d="M375.621,360.234L375.621,360.234c-4.561-3.564-11.944-3.564-16.503,0l0,0
	c-4.11,3.211-4.562,9.233-1.092,12.897l9.311,10.541l9.312-10.541C380.18,369.469,379.729,363.445,375.621,360.234z"/>
<path fill="#7B64AC" d="M713.124,258.804L713.124,258.804c-4.56-3.563-11.944-3.563-16.503,0l0,0
	c-4.11,3.212-4.561,9.234-1.092,12.898l9.311,10.541l9.312-10.541C717.683,268.038,717.232,262.016,713.124,258.804z"/>
</svg>
